<svg id="visual" viewBox="0 0 1440 900" width="1440" height="900" xmlns="http://www.w3.org/2000/svg" xmlns:xlink="http://www.w3.org/1999/xlink" version="1.1"><rect x="0" y="0" width="1440" height="900" fill="#0e0e0e"></rect><path d="M0 720L240 701L480 676L720 657L960 688L1200 679L1440 660L1440 901L1200 901L960 901L720 901L480 901L240 901L0 901Z" fill="#9c7aff"></path><path d="M0 763L240 733L480 686L720 731L960 689L1200 695L1440 764L1440 901L1200 901L960 901L720 901L480 901L240 901L0 901Z" fill="#a282ff"></path><path d="M0 792L240 753L480 767L720 735L960 815L1200 756L1440 773L1440 901L1200 901L960 901L720 901L480 901L240 901L0 901Z" fill="#a88aff"></path><path d="M0 797L240 861L480 839L720 855L960 803L1200 814L1440 822L1440 901L1200 901L960 901L720 901L480 901L240 901L0 901Z" fill="#ad91ff"></path></svg>